<svg width="511.9998" height="511" xmlns="http://www.w3.org/2000/svg">

 <g>
  <title>background</title>
  <rect fill="none" id="canvas_background" height="602" width="802" y="-1" x="-1"/>
 </g>
 <g>
  <title>Layer 1</title>
  <path fill="#7159c1" id="svg_1" d="m511.41016,245.21484c1.99218,-6.91015 -1.19922,-14.26562 -7.60547,-17.52734c-25.73438,-13.09766 -54.82813,-19.84375 -83.74219,-19.63672c5.25391,-28.08203 3.78906,-57.34765 -4.76172,-85.5c-2.08984,-6.88281 -8.76953,-11.3125 -15.92187,-10.55859c-29.10938,3.0625 -56.58203,12.94531 -80.58203,28.84375c-10.61329,-30.62891 -28.46485,-60.71485 -53.2461,-81.17969c-5.54297,-4.58203 -13.55859,-4.58203 -19.10156,0c-24.78906,20.46875 -42.63281,50.55859 -53.24609,81.17969c-24,-15.89844 -51.47266,-25.78125 -80.57813,-28.84375c-7.14844,-0.75 -13.83203,3.67578 -15.92187,10.55859c-8.55469,28.15235 -10.01954,57.41797 -4.76563,85.5c-28.91406,-0.20703 -58.00781,6.53516 -83.74219,19.63672c-6.40625,3.26172 -9.59765,10.61328 -7.60547,17.52344c11.09375,38.46484 34.45704,71.5664 66.16407,94.89062c-14.07813,14.10547 -25.81641,30.23828 -33.86719,46.75391c-1.26563,2.58984 -3.56641,9.4375 2.35156,17.02734c9.49219,12.16797 61.92969,58.16016 127.5625,44.32031c17.11719,-3.60937 31.69141,-10.27734 44.07422,-18.53515c10.40625,17.21094 23.65625,32.52734 39.57422,45.67187c2.76953,2.28907 6.16016,3.4336 9.55078,3.4336c3.38672,0 6.78125,-1.14453 9.55078,-3.4336c15.92188,-13.14843 29.17188,-28.46875 39.57813,-45.67968c12.38672,8.26172 26.96093,14.93359 44.07031,18.54297c59.48047,12.54296 112.74609,-25.32813 127.55859,-44.32032c5.91797,-7.58984 3.61719,-14.4375 2.35547,-17.02734c-8.05469,-16.51563 -19.78906,-32.64844 -33.86719,-46.75391c31.70704,-23.32422 55.07422,-56.42578 66.16407,-94.88672zm-32.91797,3.88672c-14.375,37.45703 -43.23828,67.63672 -80.73828,83.91407c-28.57813,12.40625 -59.41016,15.53125 -88.99219,9.57812c34.10547,-13.29297 63.53906,-36.77734 84.35156,-68.16016c7.57422,-11.42578 13.73828,-23.52734 18.47266,-36.07031c22.67578,-1.5 45.80468,2.21875 66.90625,10.73828zm-88.6875,-105.39843c8.40234,39.34375 0.74609,80.3125 -21.69532,114.15234c-17.33203,26.14062 -41.85937,45.71484 -70.28515,56.79297c21.40234,-30.10938 33.17578,-66.31641 33.17578,-104.15235c0,-12.57812 -1.34766,-25.67968 -3.89062,-38.76562c18.46093,-14.10547 39.8125,-23.65625 62.69531,-28.02735l0,0.00001zm-133.80469,-51.98047c26.87891,28.2539 45,75.07812 45,118.77343c0,40.60547 -16.25781,78.97657 -45,107.125c-28.74219,-28.14843 -45,-66.51953 -45,-107.125c0,-43.71093 18.12891,-90.52343 45,-118.77343zm-133.80469,51.98047c22.88281,4.375 44.23438,13.92187 62.69531,28.03125c-2.54296,13.08203 -3.89062,26.1875 -3.89062,38.76562c0,37.82813 11.77344,74.03516 33.17187,104.14453c-28.42187,-11.07422 -52.9414,-30.64062 -70.28125,-56.78906c-22.4414,-33.83984 -30.09765,-74.80859 -21.69531,-114.15234zm-88.6875,105.39843c21.10156,-8.51953 44.23047,-12.23828 66.90625,-10.73828c4.73438,12.54297 10.89844,24.64844 18.47266,36.07031c20.8125,31.38672 50.24219,54.86329 84.33984,68.14844c-29.57031,5.96485 -60.40234,2.84375 -88.98047,-9.5625c-37.5,-16.28125 -66.36328,-46.46094 -80.73828,-83.91797zm123.10547,169.75c-33.34766,7.03125 -67.63672,-6.49218 -91.94141,-27.77343c7.34766,-12.41797 17.15625,-24.3711 28.53516,-34.78516c2.98438,1.48828 6.01172,2.90625 9.09375,4.24219c39.64063,17.21093 82.86719,19.53125 123.1875,7.36328c-13.38672,20.46875 -34.85937,43.78125 -68.875,50.95312zm99.38672,24.78907c-10.25781,-9.9961 -18.89453,-21.22657 -25.82422,-33.55079c11.14453,-11.5625 19.5625,-23.87109 25.81641,-34.49218c6.25781,10.60547 14.6875,22.91797 25.83984,34.48047c-6.92969,12.33203 -15.57031,23.5664 -25.83203,33.5625zm191.32812,-52.5625c-24.24609,21.23046 -58.53515,34.8164 -91.9414,27.77343c-33.96094,-7.16015 -55.44922,-30.46875 -68.85938,-50.92187c40.65625,12.24609 83.84375,9.67969 123.17188,-7.39453c3.07812,-1.33594 6.11328,-2.75391 9.09375,-4.2461c11.37891,10.41797 21.1875,22.36719 28.53516,34.78906l-0.00001,0.00001zm0,0"/>
  <path fill="#7159c1" id="svg_2" d="m211,45.5c0,8.28516 -6.71484,15 -15,15s-15,-6.71484 -15,-15s6.71484,-15 15,-15s15,6.71484 15,15zm0,0"/>
  <path fill="#7159c1" id="svg_3" d="m331,45.5c0,8.28516 -6.71484,15 -15,15s-15,-6.71484 -15,-15s6.71484,-15 15,-15s15,6.71484 15,15zm0,0"/>
  <path fill="#7159c1" id="svg_4" d="m271,15.5c0,8.28516 -6.71484,15 -15,15s-15,-6.71484 -15,-15s6.71484,-15 15,-15s15,6.71484 15,15zm0,0"/>
 </g>
</svg>